# xmcd CD database file
#
# Track frame offsets:
#	150
#	18418
#	37225
#	56771
#	77407
#	93926
#	120762
#	138107
#	167485
#	192994
#	210307
#
# Disc length: 3092 seconds
#
# Revision: 0
# Processed by: cddbd v1.5.1PL0 Copyright (c) Steve Scherf et al.
# Submitted via: CDex 1.51
#
DISCID=810c120b
DTITLE=Arison Vonjy - Feno loatra
DYEAR=2004
DGENRE=Jazz
TTITLE0=Ravoravo
TTITLE1=Ny hirako
TTITLE2='Lay tsy malainamodiko
TTITLE3=Fety tolak'andro
TTITLE4=Irery
TTITLE5=Feno loatra
TTITLE6=Resaka mandeha
TTITLE7=Ny androany
TTITLE8=Fehezan-java-kanto
TTITLE9=Ho aiza
TTITLE10=Mankany @ rahampitso (fa ia fa ia ...)
EXTD=YEAR: 2004
EXTT0=
EXTT1=
EXTT2=
EXTT3=
EXTT4=
EXTT5=
EXTT6=
EXTT7=
EXTT8=
EXTT9=
EXTT10=
PLAYORDER=
